<?xml version="1.0" standalone="no"?><!DOCTYPE svg PUBLIC "-//W3C//DTD SVG 1.1//EN" "http://www.w3.org/Graphics/SVG/1.1/DTD/svg11.dtd"><svg t="1516175969522" class="icon" style="" viewBox="0 0 1024 1024" version="1.1" xmlns="http://www.w3.org/2000/svg" p-id="11300" xmlns:xlink="http://www.w3.org/1999/xlink" width="200" height="200"><defs><style type="text/css"></style></defs><path d="M512 512m-512 0a512 512 0 1 0 1024 0 512 512 0 1 0-1024 0Z" fill="#F99900" p-id="11301"></path><path d="M232 449.6h583.2v392H232z" fill="#EDDADA" p-id="11302"></path><path d="M232 551.2c10.4 5.6 23.2 8 38.4 8 35.2 0 63.2-14.4 63.2-49.6 0 35.2 28 49.6 63.2 49.6s63.2-14.4 63.2-49.6c0 35.2 28 49.6 63.2 49.6s63.2-14.4 63.2-49.6c0 35.2 28 49.6 63.2 49.6s63.2-14.4 63.2-49.6c0 35.2 28 49.6 63.2 49.6 14.4 0 28.8-2.4 40-8V440.8H232v110.4z" fill="#D3B4B4" p-id="11303"></path><path d="M816.8 840c-4.8 0-8.8 6.4-8.8 1.6V445.6H240v396c0 4.8-3.2 8-8 8s-8-3.2-8-8V437.6c0-4.8 3.2-8 8-8h584.8c4.8 0 7.2 3.2 7.2 8V832c0 4.8-2.4 8-7.2 8z" fill="#6B3C1C" p-id="11304"></path><path d="M839.2 394.4H209.6l87.2-97.6H752z" fill="#F74541" p-id="11305"></path><path d="M573.6 302.4L592 403.2h124L658.4 296zM461.6 402.4l-128.8-4 60-101.6 91.2 1.6z" fill="#FFFFFF" p-id="11306"></path><path d="M207.2 457.6c0 35.2 28 63.2 63.2 63.2s63.2-28 63.2-63.2V392H207.2v65.6z m252.8 0c0 35.2 28 63.2 63.2 63.2s63.2-28 63.2-63.2V392H460v65.6z m252.8 0c0 35.2 28 63.2 63.2 63.2s65.6-28 65.6-63.2V392H712.8v65.6z" fill="#F74541" p-id="11307"></path><path d="M332.8 464.8c0 35.2 28 63.2 63.2 63.2s63.2-28 63.2-63.2v-65.6H332.8v65.6z m252.8 0c0 35.2 28 63.2 63.2 63.2s63.2-28 63.2-63.2v-65.6H585.6v65.6z" fill="#FFFFFF" p-id="11308"></path><path d="M312.8 578.4h152v264h-152z" fill="#EDDADA" p-id="11309"></path><path d="M521.6 578.4h216v160h-216z" fill="#C5ECFF" p-id="11310"></path><path d="M300 256.8h447.2v37.6H300z" fill="#F74541" p-id="11311"></path><path d="M386.4 256.8H480v36.8H386.4zM564.8 256.8h93.6v36.8H564.8z" fill="#FFFFFF" p-id="11312"></path><path d="M433.6 714.4h-16c-4.8 0-8-3.2-8-8s3.2-8 8-8h16c4.8 0 8 3.2 8 8 0 4-4 8-8 8zM864 848H168c-4.8 0-8-3.2-8-8s4-8 8-8h696c4.8 0 8 3.2 8 8s-4 8-8 8z" fill="#6B3C1C" p-id="11313"></path><path d="M429.6 135.2c0-3.2-3.2-6.4-8-7.2l-15.2-2.4c-4-0.8-8.8-4.8-8.8-8.8l-2.4-15.2c-0.8-4-4-8-7.2-8s-6.4 3.2-7.2 8l-2.4 15.2c-0.8 4-4.8 8.8-8.8 8.8l-14.4 2.4c-4 0.8-8 4-8 7.2s3.2 6.4 8 7.2l15.2 2.4c4 0.8 8.8 4.8 8.8 8.8l2.4 15.2c0.8 4 4 8 7.2 8s6.4-3.2 7.2-8l2.4-16.8c0.8-4 4.8-8 8.8-8.8l14.4-0.8c4-1.6 8-4 8-7.2z" fill="#FFFFFF" p-id="11314"></path><path d="M976 523.2c0-3.2-3.2-6.4-8-7.2l-15.2-2.4c-4-0.8-8.8-4.8-8.8-8.8l-2.4-15.2c-0.8-4-4-8-7.2-8s-6.4 3.2-7.2 8l-2.4 15.2c-0.8 4-4.8 8.8-8.8 8.8l-15.2 2.4c-4 0.8-8 4-8 7.2s3.2 6.4 8 7.2l15.2 2.4c4 0.8 8.8 4.8 8.8 8.8l2.4 15.2c0.8 4 4 8 7.2 8s6.4-3.2 7.2-8l2.4-16.8c0.8-4 4.8-8 8.8-8.8l14.4-0.8c5.6-1.6 8.8-4 8.8-7.2z" fill="#FFFFFF" p-id="11315"></path><path d="M120 584c-17.6 0-32-14.4-32-32s14.4-32 32-32 32 14.4 32 32-14.4 32-32 32z m0-48.8c-9.6 0-16.8 8-16.8 16.8 0 9.6 8 16.8 16.8 16.8 9.6 0 16.8-8 16.8-16.8 0-9.6-7.2-16.8-16.8-16.8z" fill="#FFFFFF" p-id="11316"></path><path d="M648 208c-17.6 0-32-14.4-32-32s14.4-32 32-32 32 14.4 32 32-14.4 32-32 32z m0-48.8c-9.6 0-16.8 8-16.8 16.8 0 9.6 8 16.8 16.8 16.8 9.6 0 16.8-8 16.8-16.8 0-9.6-7.2-16.8-16.8-16.8z" fill="#FFFFFF" p-id="11317"></path><path d="M880 688c-17.6 0-32-14.4-32-32s14.4-32 32-32 32 14.4 32 32-14.4 32-32 32z m0-48.8c-9.6 0-16.8 8-16.8 16.8 0 9.6 8 16.8 16.8 16.8 9.6 0 16.8-8 16.8-16.8 0-9.6-7.2-16.8-16.8-16.8z" fill="#FFFFFF" p-id="11318"></path><path d="M776 488c-4.8 0-8-3.2-8-8s4-8 8-8c12 0 23.2-9.6 23.2-20V424c0-4 4-8 8-8 4.8 0 8 3.2 8 8v28c0.8 19.2-17.6 36-39.2 36z" fill="#FFFFFF" p-id="11319"></path><path d="M520 488c-4.8 0-8-3.2-8-8 0-4 4-8 8-8 12 0 23.2-9.6 23.2-20V424c0-4 4-8 8-8s8 3.2 8 8v28C560 471.2 541.6 488 520 488z" fill="#FFFFFF" p-id="11320"></path><path d="M272 488c-4.8 0-8-3.2-8-8 0-4 4-8 8-8 12 0 23.2-9.6 23.2-20V424c0-4 4-8 8-8 4.8 0 8 3.2 8 8v28C312 471.2 293.6 488 272 488z" fill="#FFFFFF" p-id="11321"></path><path d="M772.8 375.2c-2.4 0-4.8-0.8-6.4-2.4l-36.8-41.6c-3.2-3.2-2.4-8 0.8-11.2 3.2-3.2 8-2.4 11.2 0.8l36.8 41.6c3.2 3.2 2.4 8-0.8 11.2-0.8 1.6-3.2 1.6-4.8 1.6z" fill="#FFFFFF" p-id="11322"></path><path d="M784 808c-4.8 0-8-3.2-8-8V588c0-4.8 3.2-8 8-8s8 3.2 8 8V800c0 4.8-3.2 8-8 8zM519.2 696c-2.4 0-4-0.8-5.6-2.4-3.2-3.2-3.2-8 0-11.2l104-104c3.2-3.2 8-3.2 11.2 0 3.2 3.2 3.2 8 0 11.2l-104 104c-1.6 1.6-3.2 2.4-5.6 2.4zM562.4 738.4c-2.4 0-4-0.8-5.6-2.4-3.2-3.2-3.2-8 0-11.2l85.6-83.2c3.2-3.2 8-3.2 11.2 0 3.2 3.2 3.2 8 0 11.2L568 736c-1.6 1.6-3.2 2.4-5.6 2.4zM680 624c-2.4 0-4-0.8-5.6-2.4-3.2-3.2-3.2-8.8 0-12l32-34.4c3.2-3.2 8.8-3.2 12 0 3.2 3.2 3.2 8.8 0 12l-32 34.4c-1.6 1.6-4 2.4-6.4 2.4zM642.4 744c-2.4 0-4-0.8-5.6-2.4-3.2-3.2-3.2-8.8 0-12l53.6-56c3.2-3.2 8-3.2 11.2 0 3.2 3.2 3.2 8.8 0 12l-53.6 56c-1.6 1.6-4 2.4-5.6 2.4z" fill="#FFFFFF" p-id="11323"></path><path d="M736 744H520c-4.8 0-8-3.2-8-8V576c0-4.8 3.2-8 8-8h216c4.8 0 8 3.2 8 8v160c0 4.8-3.2 8-8 8z m-208-16h200V584H528v144zM472 848c-4.8 0-8-3.2-8-8V584H328v256c0 4.8-3.2 8-8 8s-8-3.2-8-8V576c0-4.8 3.2-8 8-8h152c4.8 0 8 3.2 8 8v264c0 4.8-3.2 8-8 8zM848 392c0-2.4-0.8-4.8-3.2-6.4L760 294.4V248c0-4.8-3.2-8-8-8H296c-4.8 0-8 3.2-8 8v44.8L203.2 385.6c-2.4 1.6-3.2 3.2-3.2 6.4v65.6c0 40 30.4 71.2 69.6 71.2 28 0 52.8-16.8 64-40 11.2 24 34.4 40 62.4 40s54.4-16 67.2-39.2c12 23.2 36.8 39.2 64 39.2 27.2 0 51.2-15.2 63.2-36.8C600 512.8 620.8 528 648 528c27.2 0 51.2-15.2 63.2-38.4 12 22.4 36 38.4 63.2 38.4 40 0 73.6-32.8 73.6-71.2v-60.8c0.8-0.8 0-2.4 0-4zM744 256v32H664v-32h80z m-96 0v32h-72v-32h72z m-88 0v32h-72v-32h72z m-88 0v32H392v-32h80z m-96 0v32h-72v-32h72z m-48 200.8c0 30.4-28 55.2-58.4 55.2-29.6 0-54.4-24-54.4-55.2V400H328v56.8z m0-72.8H226.4l72.8-80H376l-48 80z m128 72.8c0 26.4-29.6 56-60 56S344 488 344 457.6V400h112v56.8z m0-72.8H344l48-80h80l-16 80z m32-80h73.6l12 80H470.4L488 304z m88 152.8c0 30.4-19.2 55.2-49.6 55.2-30.4 0-54.4-24.8-54.4-55.2V400h104v56.8z m1.6-152.8H648l56 80H590.4l-12.8-80zM704 457.6c0 30.4-25.6 55.2-56 55.2s-56-24.8-56-55.2V400h112v57.6zM664 304h83.2l74.4 80H720l-56-80z m168 152.8c0 29.6-26.4 55.2-57.6 55.2-28 0-51.2-21.6-54.4-48.8V400h112v56.8z" fill="#6B3C1C" p-id="11324"></path></svg>