<?xml version="1.0" standalone="no"?><!DOCTYPE svg PUBLIC "-//W3C//DTD SVG 1.1//EN" "http://www.w3.org/Graphics/SVG/1.1/DTD/svg11.dtd"><svg t="1516174383975" class="icon" style="" viewBox="0 0 1024 1024" version="1.1" xmlns="http://www.w3.org/2000/svg" p-id="3185" xmlns:xlink="http://www.w3.org/1999/xlink" width="200" height="200"><defs><style type="text/css"></style></defs><path d="M692.12672 555.5968c107.6992-7.36256 193.02912-95.62112 193.02912-203.10528 0-18.6368-2.70848-37.44768-8.0896-55.94112-2.24256-7.72096-8.46336-13.68576-16.384-15.70816-7.86432-2.0224-16.3328 0.24064-22.0928 5.90336l-39.84896 39.10144c-25.10848 24.66816-68.87936 24.66816-94.02368-0.01536-25.9072-25.4208-25.9072-66.81088 0-92.25728l39.8336-39.07072c5.80096-5.66272 8.06912-13.90592 6.016-21.67296-2.048-7.77216-8.12544-13.89568-15.98976-16.09216-18.84672-5.25312-38.0416-7.92576-57.00608-7.92576-114.48832 0-207.62624 91.3664-207.62624 203.6736 0 10.6752 0.97792 21.6064 2.83136 32.60928l-27.31008 24.51968L313.63072 280.28928c12.24192-25.22112 7.808-56.35584-13.45024-77.2096l-48.57344-47.65184c-9.00608-8.832-23.6032-8.832-32.61952 0L153.7536 219.43808c-9.01632 8.832-9.01632 23.15776 0 31.98976l48.5632 47.64672c13.06624 12.83072 30.45888 19.89632 48.93184 19.89632 10.48576 0 20.59264-2.35008 29.78816-6.66624l130.3552 127.89248-223.85664 200.96512c-26.15296 25.67168-40.54528 59.75552-40.54528 96.03072 0 36.27008 14.39744 70.35392 40.54528 95.9744 26.15808 25.66144 60.91776 39.78752 97.86368 39.78752 36.96128 0 71.72608-14.1312 98.55488-40.4992l157.43488-168.76544 186.27072 182.74816c17.42848 17.09056 40.58624 26.51648 65.21856 26.51648 24.6784 0 47.84128-9.42592 65.21344-26.51648 17.47968-17.05472 27.0592-39.79776 27.0592-63.98976 0-24.17664-9.57952-46.91968-27.02336-64.01024L692.12672 555.5968zM267.56096 267.07456c-8.74496 8.56064-23.87968 8.56064-32.62464 0l-32.256-31.63648 32.62464-32.00512 32.256 31.63648C276.54656 243.90144 276.54656 258.25792 267.56096 267.07456zM350.63808 801.18272c-34.84672 34.18112-95.57504 34.22208-130.47808-0.01536-17.4336-17.09568-27.02848-39.79776-27.02848-63.9744s9.59488-46.91968 26.2912-63.32416l294.02624-263.94624c0.21504-0.19456 0.36352-0.42496 0.57344-0.62976 0.58368-0.5632 1.11104-1.16736 1.62816-1.78688 0.4608-0.55296 0.9216-1.1008 1.32608-1.6896 0.4096-0.59904 0.75776-1.2288 1.11104-1.86368 0.36352-0.65536 0.72704-1.30048 1.01376-1.98656 0.28672-0.6656 0.50176-1.3568 0.72192-2.05312 0.22016-0.68608 0.4352-1.36192 0.58368-2.05824 0.15872-0.73216 0.24064-1.47968 0.32256-2.23232 0.08192-0.70656 0.1536-1.40288 0.15872-2.11456 0.01024-0.72192-0.0512-1.44384-0.10752-2.17088-0.07168-0.78336-0.1536-1.55648-0.3072-2.3296-0.05632-0.28672-0.04096-0.57344-0.10752-0.86016-2.8416-12.1088-4.2752-24.12544-4.2752-35.6608 0-88.04352 74.08128-158.83264 163.65056-158.4128l-7.63904 7.51104c-43.86304 43.09504-43.86304 113.18272 0 156.23168 21.2736 20.89984 49.55648 32.40448 79.6416 32.40448 30.1056 0 58.36288-11.50976 79.62624-32.384l7.64416-7.49568c0.03072 0.7168 0.03072 1.42848 0.03072 2.1504 0 87.33696-72.44288 158.39744-161.46432 158.39744-11.93472 0-24.13056-1.39776-36.3264-4.18304-0.31232-0.07168-0.61952-0.05632-0.93696-0.11264-0.77824-0.14336-1.55648-0.22016-2.34496-0.28672-0.7168-0.05632-1.42336-0.11264-2.12992-0.10752-0.80384 0.00512-1.59744 0.08704-2.39616 0.17408-0.67072 0.0768-1.3312 0.14336-1.98656 0.27648-0.83968 0.16384-1.64864 0.4096-2.46272 0.6656-0.57856 0.18432-1.16224 0.35328-1.72032 0.57856-0.8192 0.32768-1.60256 0.73728-2.3808 1.16224-0.53248 0.28672-1.05472 0.5632-1.55648 0.88576-0.71168 0.45568-1.37728 0.97792-2.03264 1.52064-0.52736 0.42496-1.03424 0.85504-1.51552 1.32096-0.256 0.24064-0.54272 0.42496-0.78336 0.68096L350.63808 801.18272zM825.50272 814.4384c-17.42848 17.09568-47.7952 17.09568-65.2288 0l-179.18976-175.7952 65.24928-63.98976 179.16928 175.77472c8.71936 8.56064 13.52704 19.93216 13.52704 32.0256S834.2272 805.89312 825.50272 814.4384zM285.40416 691.9168c-25.48224 0-46.13632 20.29056-46.13632 45.26592 0 25.01632 20.6592 45.2608 46.13632 45.2608 25.50272 0 46.14144-20.24448 46.14144-45.2608C331.54048 712.20736 310.90688 691.9168 285.40416 691.9168z" p-id="3186"></path></svg>