<?xml version="1.0" standalone="no"?><!DOCTYPE svg PUBLIC "-//W3C//DTD SVG 1.1//EN" "http://www.w3.org/Graphics/SVG/1.1/DTD/svg11.dtd"><svg t="1516175799460" class="icon" style="" viewBox="0 0 1024 1024" version="1.1" xmlns="http://www.w3.org/2000/svg" p-id="4313" xmlns:xlink="http://www.w3.org/1999/xlink" width="200" height="200"><defs><style type="text/css"></style></defs><path d="M784.7 453.1L279.5 604.8c-8.9 2.7-18.3-2.4-21-11.3L183 342.2c-2.7-8.9 2.4-18.3 11.3-21l505.2-151.7c8.9-2.7 18.3 2.4 21 11.3L796 432.1c2.7 8.9-2.3 18.3-11.3 21z" fill="#00F0D4" p-id="4314"></path><path d="M199 395.48l537.557-161.43 24.1 80.255L223.1 475.735z" fill="#FECD44" p-id="4315"></path><path d="M801.6 855.3H177.5c-40.9 0-74-33.1-74-74V386.8c0-40.9 33.1-74 74-74h624.1c40.9 0 74 33.1 74 74v394.5c0 40.8-33.1 74-74 74z" fill="#1F53CC" p-id="4316"></path><path d="M120 784.9h-10c-2.2 0-4-1.8-4-4s1.8-4 4-4h10c2.2 0 4 1.8 4 4s-1.8 4-4 4zM662.8 784.9h-19.7c-2.2 0-4-1.8-4-4s1.8-4 4-4h19.7c2.2 0 4 1.8 4 4s-1.8 4-4 4z m-49.3 0h-19.7c-2.2 0-4-1.8-4-4s1.8-4 4-4h19.7c2.2 0 4 1.8 4 4s-1.8 4-4 4z m-49.4 0h-19.7c-2.2 0-4-1.8-4-4s1.8-4 4-4h19.7c2.2 0 4 1.8 4 4s-1.8 4-4 4z m-49.3 0H495c-2.2 0-4-1.8-4-4s1.8-4 4-4h19.7c2.2 0 4 1.8 4 4s-1.7 4-3.9 4z m-49.4 0h-19.7c-2.2 0-4-1.8-4-4s1.8-4 4-4h19.7c2.2 0 4 1.8 4 4s-1.8 4-4 4z m-49.3 0h-19.7c-2.2 0-4-1.8-4-4s1.8-4 4-4h19.7c2.2 0 4 1.8 4 4s-1.8 4-4 4z m-49.4 0H347c-2.2 0-4-1.8-4-4s1.8-4 4-4h19.7c2.2 0 4 1.8 4 4s-1.8 4-4 4z m-49.3 0h-19.7c-2.2 0-4-1.8-4-4s1.8-4 4-4h19.7c2.2 0 4 1.8 4 4s-1.8 4-4 4z m-49.4 0h-19.7c-2.2 0-4-1.8-4-4s1.8-4 4-4H268c2.2 0 4 1.8 4 4s-1.8 4-4 4z m-49.3 0H199c-2.2 0-4-1.8-4-4s1.8-4 4-4h19.7c2.2 0 4 1.8 4 4s-1.8 4-4 4z m-49.4 0h-19.7c-2.2 0-4-1.8-4-4s1.8-4 4-4h19.7c2.2 0 4 1.8 4 4s-1.8 4-4 4z m522.8-3.7c-1.8 0-3.4-1.2-3.9-3-0.6-2.1 0.7-4.3 2.8-4.9 6.1-1.6 12.1-3.8 17.9-6.5 2-0.9 4.4-0.1 5.3 1.9 0.9 2 0.1 4.4-1.9 5.3-6.2 2.9-12.6 5.2-19.2 6.9-0.3 0.3-0.7 0.3-1 0.3z m43.4-22.5c-1.1 0-2.3-0.5-3.1-1.4-1.4-1.7-1.2-4.2 0.5-5.6 4.8-4.1 9.4-8.6 13.4-13.5 1.4-1.7 3.9-1.9 5.6-0.5 1.7 1.4 1.9 3.9 0.5 5.6-4.4 5.2-9.2 10.1-14.4 14.4-0.6 0.7-1.6 1-2.5 1z m29.8-38.9c-0.6 0-1.1-0.1-1.7-0.4-2-0.9-2.9-3.3-2-5.3 2.7-5.7 4.8-11.8 6.4-17.9 0.6-2.1 2.7-3.4 4.9-2.9 2.1 0.6 3.4 2.7 2.9 4.9-1.7 6.6-4 13-6.9 19.2-0.7 1.5-2.1 2.4-3.6 2.4z m10.3-47.8c-2.2 0-4-1.8-4-4v-19.7c0-2.2 1.8-4 4-4s4 1.8 4 4V668c0 2.2-1.8 4-4 4z m0-49.4c-2.2 0-4-1.8-4-4v-19.7c0-2.2 1.8-4 4-4s4 1.8 4 4v19.7c0 2.2-1.8 4-4 4z m0-49.3c-2.2 0-4-1.8-4-4v-19.7c0-2.2 1.8-4 4-4s4 1.8 4 4v19.7c0 2.2-1.8 4-4 4z m0-49.4c-2.2 0-4-1.8-4-4v-19.7c0-2.2 1.8-4 4-4s4 1.8 4 4v19.7c0 2.2-1.8 4-4 4z m-3.6-49c-1.8 0-3.4-1.2-3.9-3-1.6-6.1-3.8-12.1-6.4-17.9-0.9-2 0-4.4 2-5.3 2-0.9 4.4-0.1 5.3 2 2.9 6.2 5.2 12.6 6.9 19.2 0.6 2.1-0.7 4.3-2.9 4.9-0.4 0.1-0.7 0.1-1 0.1z m-22.5-43.5c-1.1 0-2.3-0.5-3.1-1.4-4.1-4.9-8.6-9.4-13.4-13.5-1.7-1.4-1.9-3.9-0.5-5.6 1.4-1.7 3.9-1.9 5.6-0.5 5.2 4.4 10 9.2 14.4 14.5 1.4 1.7 1.2 4.2-0.5 5.6-0.7 0.6-1.6 0.9-2.5 0.9z m-38.8-29.8c-0.6 0-1.1-0.1-1.7-0.4-5.7-2.7-11.8-4.9-17.9-6.5-2.1-0.6-3.4-2.8-2.8-4.9 0.6-2.1 2.8-3.4 4.9-2.8 6.6 1.7 13 4.1 19.2 7 2 0.9 2.9 3.3 1.9 5.3-0.6 1.4-2.1 2.3-3.6 2.3z m-47.8-10.5h-19.7c-2.2 0-4-1.8-4-4s1.8-4 4-4h19.7c2.2 0 4 1.8 4 4s-1.8 4-4 4z m-49.3 0h-19.7c-2.2 0-4-1.8-4-4s1.8-4 4-4h19.7c2.2 0 4 1.8 4 4s-1.8 4-4 4z m-49.4 0h-19.7c-2.2 0-4-1.8-4-4s1.8-4 4-4h19.7c2.2 0 4 1.8 4 4s-1.7 4-4 4z m-49.3 0h-19.7c-2.2 0-4-1.8-4-4s1.8-4 4-4h19.7c2.2 0 4 1.8 4 4s-1.8 4-4 4z m-49.4 0h-19.7c-2.2 0-4-1.8-4-4s1.8-4 4-4h19.7c2.2 0 4 1.8 4 4s-1.7 4-4 4z m-49.3 0h-19.7c-2.2 0-4-1.8-4-4s1.8-4 4-4h19.7c2.2 0 4 1.8 4 4s-1.8 4-4 4z m-49.4 0h-19.7c-2.2 0-4-1.8-4-4s1.8-4 4-4h19.7c2.2 0 4 1.8 4 4s-1.7 4-4 4z m-49.3 0h-19.7c-2.2 0-4-1.8-4-4s1.8-4 4-4h19.7c2.2 0 4 1.8 4 4s-1.8 4-4 4z m-49.3 0h-19.7c-2.2 0-4-1.8-4-4s1.8-4 4-4h19.7c2.2 0 4 1.8 4 4s-1.8 4-4 4z m-49.4 0h-19.7c-2.2 0-4-1.8-4-4s1.8-4 4-4h19.7c2.2 0 4 1.8 4 4s-1.8 4-4 4z m-49.3 0h-19.7c-2.2 0-4-1.8-4-4s1.8-4 4-4h19.7c2.2 0 4 1.8 4 4s-1.8 4-4 4zM120 391.1h-10c-2.2 0-4-1.8-4-4s1.8-4 4-4h10c2.2 0 4 1.8 4 4s-1.8 4-4 4z" fill="#477FFF" p-id="4317"></path><path d="M852.2 652.4H733.1c-37.7 0-68.3-30.6-68.3-68.3 0-37.7 30.6-68.3 68.3-68.3h119.1c37.7 0 68.3 30.6 68.3 68.3 0 37.7-30.6 68.3-68.3 68.3z" fill="#FECD44" p-id="4318"></path><path d="M735.3 584m-31.9 0a31.9 31.9 0 1 0 63.8 0 31.9 31.9 0 1 0-63.8 0Z" fill="#FC355D" p-id="4319"></path></svg>